<svg xmlns="http://www.w3.org/2000/svg" viewBox="0 0 100 100"><path fill="#f15b6c" d="M90,51V29c0-2.209-1.791-4-4-4h-2H17h-2c-2.209,0-4,1.791-4,4v44c0,2.209,1.791,4,4,4h30 c0,0,1,3,5.5,3s5.5-3,5.5-3h12v1h23V51H90z"/><path fill="#fefdef" d="M85.5,48.5v-21l-5-8c-22,0-30,6-30,6s-8-6-30-6l-5,8v45H86v-24H85.5z"/><path fill="#565fa1" d="M45.5,72.5c0,0,1,3,5,3s5-3,5-3"/><path fill="#1f212b" d="M50.5,76c-4.311,0-5.429-3.205-5.475-3.342c-0.087-0.262,0.055-0.545,0.316-0.633 c0.263-0.087,0.544,0.054,0.632,0.314l0,0C46.011,72.448,46.931,75,50.5,75c3.598,0,4.517-2.632,4.525-2.658 c0.089-0.262,0.372-0.403,0.633-0.316c0.262,0.088,0.403,0.371,0.316,0.633C55.929,72.795,54.811,76,50.5,76z"/><path fill="#ceccbe" d="M15.5,72.5h35c0,0-8-6-30-6L15.5,72.5z"/><path fill="#fefdef" d="M20.5,19.5c22,0,30,6,30,6s8-6,30-6v47c-22,0-30,6-30,6s-8-6-30-6V19.5z"/><path fill="#ceccbe" d="M85.5,73h-35c-0.215,0-0.406-0.138-0.475-0.342c-0.067-0.204,0.002-0.429,0.175-0.559 c0.332-0.249,8.385-6.1,30.3-6.1c0.148,0,0.289,0.065,0.384,0.18l5,6c0.125,0.149,0.151,0.356,0.069,0.532 C85.87,72.888,85.694,73,85.5,73z"/><rect width="7.81" height="1" x="14.095" y="69" fill="#1f212b" transform="rotate(-50.149 18.003 69.504)"/><path fill="#1f212b" d="M45.5,50.599c-0.057,0-0.115-0.01-0.172-0.03c-5.427-1.983-11.771-3.184-18.855-3.569 c-0.275-0.015-0.487-0.25-0.472-0.526c0.016-0.275,0.218-0.5,0.526-0.472c7.183,0.391,13.624,1.611,19.145,3.628 c0.259,0.095,0.393,0.382,0.298,0.642C45.896,50.473,45.704,50.599,45.5,50.599z"/><path fill="#1f212b" d="M55.5,29.599c-0.204,0-0.396-0.126-0.47-0.328c-0.095-0.26,0.039-0.547,0.298-0.642 c5.521-2.017,11.962-3.237,19.145-3.628c0.306-0.021,0.512,0.196,0.526,0.472c0.016,0.276-0.196,0.512-0.472,0.526 c-7.085,0.386-13.429,1.586-18.855,3.569C55.615,29.589,55.557,29.599,55.5,29.599z"/><path fill="#1f212b" d="M45.5,36.599c-0.057,0-0.115-0.01-0.172-0.03c-5.427-1.983-11.771-3.184-18.855-3.569 c-0.275-0.015-0.487-0.25-0.472-0.526c0.016-0.275,0.218-0.501,0.526-0.472c7.183,0.391,13.624,1.611,19.145,3.628 c0.259,0.095,0.393,0.382,0.298,0.642C45.896,36.473,45.704,36.599,45.5,36.599z"/><path fill="#1f212b" d="M45.5,64.599c-0.057,0-0.115-0.01-0.172-0.03c-5.427-1.983-11.771-3.184-18.855-3.569 c-0.275-0.015-0.487-0.25-0.472-0.526c0.016-0.275,0.218-0.498,0.526-0.472c7.183,0.391,13.624,1.611,19.145,3.628 c0.259,0.095,0.393,0.382,0.298,0.642C45.896,64.473,45.704,64.599,45.5,64.599z"/><path fill="#1f212b" d="M42.5,28.609c-0.047,0-0.095-0.007-0.143-0.021c-0.962-0.287-1.963-0.554-2.973-0.794 c-0.269-0.063-0.436-0.333-0.371-0.602c0.063-0.27,0.335-0.438,0.602-0.371c1.029,0.244,2.048,0.517,3.027,0.808 c0.265,0.079,0.415,0.357,0.337,0.622C42.915,28.469,42.716,28.609,42.5,28.609z"/><path fill="#1f212b" d="M45.5,29.599c-0.057,0-0.115-0.01-0.172-0.03c-0.312-0.114-0.646-0.231-0.989-0.348 c-0.261-0.089-0.401-0.373-0.313-0.635c0.09-0.262,0.372-0.397,0.635-0.313c0.352,0.12,0.691,0.239,1.011,0.355 c0.259,0.095,0.393,0.382,0.298,0.642C45.896,29.473,45.704,29.599,45.5,29.599z"/><path fill="#1f212b" d="M36.501,27.171c-0.031,0-0.062-0.003-0.093-0.009c-3.117-0.583-6.46-0.975-9.936-1.163 c-0.275-0.015-0.487-0.25-0.472-0.526c0.016-0.275,0.24-0.492,0.526-0.472c3.519,0.19,6.905,0.587,10.064,1.179 c0.271,0.051,0.45,0.312,0.399,0.583C36.946,27.003,36.736,27.171,36.501,27.171z"/><path fill="#1f212b" d="M45.5,43.599c-0.057,0-0.115-0.01-0.172-0.03c-3.029-1.106-6.364-1.977-9.913-2.585 c-0.271-0.047-0.454-0.306-0.408-0.578c0.047-0.271,0.301-0.457,0.578-0.408c3.607,0.619,7.001,1.505,10.087,2.632 c0.259,0.095,0.393,0.382,0.298,0.642C45.896,43.473,45.704,43.599,45.5,43.599z"/><path fill="#1f212b" d="M31.501,40.421c-0.02,0-0.039-0.001-0.058-0.003c-1.631-0.188-3.303-0.328-4.971-0.419 c-0.275-0.015-0.487-0.25-0.472-0.526c0.016-0.275,0.218-0.493,0.526-0.472c1.688,0.092,3.38,0.233,5.029,0.423 c0.274,0.032,0.472,0.279,0.44,0.554C31.968,40.232,31.751,40.421,31.501,40.421z"/><path fill="#1f212b" d="M45.5,57.599c-0.057,0-0.115-0.01-0.172-0.03c-0.957-0.35-1.957-0.68-2.97-0.979 c-0.266-0.078-0.416-0.356-0.338-0.621c0.079-0.265,0.358-0.413,0.621-0.338c1.033,0.307,2.053,0.643,3.03,0.999 c0.259,0.095,0.393,0.382,0.298,0.642C45.896,57.473,45.704,57.599,45.5,57.599z"/><path fill="#1f212b" d="M38.5,55.579c-0.035,0-0.071-0.004-0.107-0.012c-3.676-0.811-7.686-1.338-11.92-1.568 c-0.275-0.015-0.487-0.25-0.472-0.526c0.016-0.275,0.218-0.491,0.526-0.472c4.287,0.232,8.352,0.768,12.08,1.59 c0.27,0.06,0.44,0.326,0.381,0.596C38.937,55.42,38.73,55.579,38.5,55.579z"/><path fill="#1f212b" d="M65.499,33.99c-0.238,0-0.45-0.172-0.492-0.415c-0.047-0.272,0.136-0.531,0.408-0.578 c0.954-0.164,1.964-0.314,3.021-0.45c0.269-0.038,0.524,0.157,0.56,0.433c0.035,0.273-0.158,0.524-0.433,0.56 c-1.042,0.134-2.038,0.282-2.979,0.444C65.556,33.988,65.527,33.99,65.499,33.99z"/><path fill="#1f212b" d="M55.5,36.599c-0.204,0-0.396-0.126-0.47-0.328c-0.095-0.26,0.039-0.547,0.298-0.642 c1.899-0.693,3.937-1.302,6.056-1.807c0.271-0.067,0.538,0.102,0.603,0.37s-0.102,0.538-0.37,0.603 c-2.082,0.496-4.082,1.093-5.944,1.773C55.615,36.589,55.557,36.599,55.5,36.599z"/><path fill="#1f212b" d="M50.5,60c-0.276,0-0.5-0.224-0.5-0.5v-34c0-0.276,0.224-0.5,0.5-0.5s0.5,0.224,0.5,0.5v34 C51,59.776,50.776,60,50.5,60z"/><path fill="#1f212b" d="M50.5,69c-0.276,0-0.5-0.224-0.5-0.5v-1c0-0.276,0.224-0.5,0.5-0.5s0.5,0.224,0.5,0.5v1 C51,68.776,50.776,69,50.5,69z"/><path fill="#1f212b" d="M50.5,65c-0.276,0-0.5-0.224-0.5-0.5v-2c0-0.276,0.224-0.5,0.5-0.5s0.5,0.224,0.5,0.5v2 C51,64.776,50.776,65,50.5,65z"/><path fill="#1f212b" d="M64.5,73h-49c-0.276,0-0.5-0.224-0.5-0.5v-45c0-0.094,0.026-0.186,0.076-0.266l5-7.999 c0.147-0.234,0.456-0.304,0.688-0.16c0.234,0.146,0.306,0.455,0.159,0.689L16,27.644V72h48.5c0.276,0,0.5,0.224,0.5,0.5 S64.776,73,64.5,73z"/><path fill="#1f212b" d="M85.5,50c-0.276,0-0.5-0.224-0.5-0.5V27.644l-4.924-7.879c-0.146-0.234-0.075-0.542,0.159-0.689 c0.232-0.144,0.542-0.075,0.688,0.16l5,7.999C85.974,27.314,86,27.406,86,27.5v22C86,49.776,85.776,50,85.5,50z"/><path fill="#1f212b" d="M50.5,60c-0.276,0-0.5-0.224-0.5-0.5v-34c0-0.276,0.224-0.5,0.5-0.5s0.5,0.224,0.5,0.5v34 C51,59.776,50.776,60,50.5,60z"/><path fill="#1f212b" d="M45.5,50.599c-0.057,0-0.115-0.01-0.172-0.03c-5.428-1.983-11.771-3.185-18.855-3.57 c-0.275-0.015-0.487-0.25-0.472-0.526c0.015-0.275,0.234-0.498,0.526-0.472c7.183,0.39,13.624,1.611,19.145,3.628 c0.259,0.095,0.393,0.382,0.298,0.641C45.896,50.474,45.704,50.599,45.5,50.599z"/><path fill="#1f212b" d="M55.5,29.599c-0.204,0-0.396-0.125-0.47-0.329c-0.095-0.259,0.039-0.546,0.298-0.641 c5.519-2.017,11.96-3.237,19.145-3.628c0.307-0.021,0.512,0.197,0.526,0.472c0.016,0.276-0.196,0.512-0.472,0.526 c-7.087,0.386-13.431,1.587-18.855,3.57C55.615,29.589,55.557,29.599,55.5,29.599z"/><path fill="#1f212b" d="M45.5,36.599c-0.057,0-0.115-0.01-0.172-0.03c-5.428-1.983-11.771-3.185-18.855-3.57 c-0.275-0.015-0.487-0.25-0.472-0.526c0.015-0.275,0.234-0.5,0.526-0.472c7.183,0.39,13.624,1.611,19.145,3.628 c0.259,0.095,0.393,0.382,0.298,0.641C45.896,36.474,45.704,36.599,45.5,36.599z"/><path fill="#1f212b" d="M55.5,43.599c-0.204,0-0.396-0.125-0.47-0.329c-0.095-0.259,0.039-0.546,0.298-0.641 c5.519-2.017,11.96-3.237,19.145-3.628c0.307-0.019,0.512,0.197,0.526,0.472c0.016,0.276-0.196,0.512-0.472,0.526 c-7.087,0.386-13.431,1.587-18.855,3.57C55.615,43.589,55.557,43.599,55.5,43.599z"/><path fill="#1f212b" d="M55.5,57.599c-0.204,0-0.396-0.125-0.47-0.329c-0.095-0.259,0.039-0.546,0.298-0.641 c3.915-1.431,8.325-2.467,13.108-3.082c0.27-0.032,0.524,0.158,0.56,0.433c0.035,0.273-0.158,0.524-0.433,0.56 c-4.709,0.605-9.047,1.624-12.892,3.029C55.615,57.589,55.557,57.599,55.5,57.599z"/><path fill="#1f212b" d="M45.5,64.599c-0.057,0-0.115-0.01-0.172-0.03c-5.428-1.983-11.771-3.185-18.855-3.57 c-0.275-0.015-0.487-0.25-0.472-0.526c0.015-0.275,0.234-0.497,0.526-0.472c7.183,0.39,13.624,1.611,19.145,3.628 c0.259,0.095,0.393,0.382,0.298,0.641C45.896,64.474,45.704,64.599,45.5,64.599z"/><path fill="#1f212b" d="M42.5,28.609c-0.047,0-0.095-0.007-0.143-0.021c-0.955-0.284-1.956-0.551-2.974-0.794 c-0.269-0.064-0.435-0.334-0.37-0.603c0.063-0.268,0.33-0.434,0.603-0.37c1.035,0.247,2.053,0.519,3.026,0.808 c0.265,0.079,0.415,0.357,0.337,0.622C42.915,28.468,42.716,28.609,42.5,28.609z"/><path fill="#1f212b" d="M45.5,29.599c-0.057,0-0.115-0.01-0.172-0.03c-0.313-0.114-0.646-0.231-0.99-0.349 c-0.261-0.09-0.4-0.374-0.311-0.635c0.089-0.261,0.373-0.398,0.635-0.311c0.351,0.121,0.691,0.239,1.01,0.355 c0.259,0.095,0.393,0.382,0.298,0.641C45.896,29.474,45.704,29.599,45.5,29.599z"/><path fill="#1f212b" d="M36.501,27.171c-0.031,0-0.062-0.003-0.093-0.009c-3.113-0.583-6.456-0.974-9.936-1.163 c-0.275-0.015-0.487-0.251-0.472-0.526s0.226-0.492,0.526-0.472c3.522,0.191,6.909,0.587,10.064,1.178 c0.271,0.051,0.45,0.313,0.399,0.583C36.946,27.003,36.736,27.171,36.501,27.171z"/><path fill="#1f212b" d="M45.5,43.599c-0.057,0-0.115-0.01-0.172-0.03c-3.073-1.123-6.315-1.968-9.913-2.586 c-0.271-0.046-0.454-0.305-0.408-0.577c0.047-0.272,0.301-0.457,0.578-0.408c3.657,0.628,6.956,1.489,10.087,2.632 c0.259,0.095,0.393,0.382,0.298,0.641C45.896,43.474,45.704,43.599,45.5,43.599z"/><path fill="#1f212b" d="M31.501,40.421c-0.02,0-0.039-0.001-0.058-0.003c-1.621-0.186-3.293-0.327-4.971-0.418 c-0.275-0.015-0.487-0.25-0.472-0.526c0.015-0.274,0.234-0.491,0.526-0.472c1.697,0.092,3.39,0.235,5.029,0.423 c0.274,0.031,0.472,0.279,0.44,0.554C31.968,40.233,31.751,40.421,31.501,40.421z"/><path fill="#1f212b" d="M45.5,57.599c-0.057,0-0.115-0.01-0.172-0.03c-0.954-0.349-1.954-0.678-2.971-0.98 c-0.265-0.079-0.415-0.357-0.337-0.622c0.079-0.265,0.355-0.413,0.622-0.337c1.036,0.308,2.056,0.645,3.029,1 c0.259,0.095,0.393,0.382,0.298,0.641C45.896,57.474,45.704,57.599,45.5,57.599z"/><path fill="#1f212b" d="M38.5,55.579c-0.035,0-0.071-0.004-0.107-0.012c-3.674-0.81-7.685-1.337-11.92-1.568 c-0.275-0.015-0.487-0.25-0.472-0.526c0.015-0.274,0.234-0.49,0.526-0.472c4.289,0.233,8.354,0.768,12.08,1.59 c0.27,0.06,0.44,0.326,0.381,0.596C38.937,55.42,38.73,55.579,38.5,55.579z"/><path fill="#1f212b" d="M65.499,33.99c-0.238,0-0.45-0.172-0.492-0.415c-0.047-0.272,0.136-0.531,0.408-0.578 c0.954-0.164,1.964-0.314,3.021-0.451c0.27-0.034,0.524,0.158,0.56,0.432s-0.158,0.524-0.433,0.56 c-1.042,0.134-2.038,0.282-2.979,0.444C65.556,33.988,65.527,33.99,65.499,33.99z"/><path fill="#1f212b" d="M71.499,33.217c-0.256,0-0.474-0.196-0.497-0.456c-0.024-0.275,0.179-0.518,0.453-0.542 c0.969-0.086,1.972-0.161,3.018-0.218c0.276-0.027,0.512,0.196,0.526,0.472c0.016,0.276-0.196,0.511-0.472,0.526 c-1.034,0.057-2.025,0.13-2.982,0.216C71.529,33.216,71.515,33.217,71.499,33.217z"/><path fill="#1f212b" d="M55.5,36.599c-0.204,0-0.396-0.125-0.47-0.328c-0.095-0.259,0.039-0.546,0.298-0.642 c1.896-0.693,3.935-1.302,6.056-1.808c0.272-0.064,0.539,0.102,0.603,0.37c0.064,0.269-0.102,0.539-0.37,0.603 c-2.084,0.497-4.084,1.094-5.944,1.774C55.615,36.589,55.557,36.599,55.5,36.599z"/><path fill="#1f212b" d="M62.5,48.58c-0.23,0-0.438-0.159-0.488-0.393c-0.06-0.27,0.111-0.536,0.381-0.595 c2.004-0.439,3.981-0.779,6.045-1.038c0.269-0.035,0.523,0.159,0.559,0.434c0.034,0.274-0.16,0.524-0.434,0.559 c-2.033,0.255-3.981,0.59-5.955,1.022C62.571,48.576,62.535,48.58,62.5,48.58z"/><path fill="#1f212b" d="M55.5,50.599c-0.204,0-0.396-0.125-0.47-0.328c-0.095-0.259,0.038-0.546,0.298-0.642 c0.958-0.351,1.978-0.687,3.029-1c0.269-0.076,0.544,0.072,0.622,0.337s-0.072,0.543-0.337,0.622 c-1.032,0.307-2.032,0.637-2.971,0.98C55.615,50.589,55.558,50.599,55.5,50.599z"/><path fill="#1f212b" d="M50.5,76c-4.311,0-5.429-3.206-5.475-3.342c-0.087-0.262,0.055-0.545,0.316-0.632 c0.262-0.085,0.544,0.053,0.632,0.313l0,0C46.011,72.448,46.931,75,50.5,75c3.598,0,4.517-2.631,4.525-2.658 c0.089-0.262,0.372-0.401,0.633-0.316c0.262,0.087,0.403,0.37,0.316,0.632C55.929,72.794,54.811,76,50.5,76z"/><path fill="#1f212b" d="M50.5,69c-0.276,0-0.5-0.224-0.5-0.5v-1c0-0.276,0.224-0.5,0.5-0.5s0.5,0.224,0.5,0.5v1 C51,68.776,50.776,69,50.5,69z"/><path fill="#1f212b" d="M50.5,65c-0.276,0-0.5-0.224-0.5-0.5v-2c0-0.276,0.224-0.5,0.5-0.5s0.5,0.224,0.5,0.5v2 C51,64.776,50.776,65,50.5,65z"/><path fill="#1f212b" d="M50.499,73c-0.104,0-0.209-0.032-0.298-0.099C50.121,72.841,42.024,67,20.5,67 c-0.276,0-0.5-0.224-0.5-0.5v-47c0-0.276,0.224-0.5,0.5-0.5c19.868,0,28.343,4.809,30,5.893C52.157,23.809,60.632,19,80.5,19 c0.276,0,0.5,0.224,0.5,0.5v23.09c0,0.276-0.224,0.5-0.5,0.5s-0.5-0.224-0.5-0.5V20.001C58.849,20.09,50.878,25.842,50.799,25.9 c-0.176,0.132-0.422,0.132-0.598,0c-0.079-0.059-8.05-5.81-29.201-5.899v46c21.538,0.088,29.471,5.852,29.8,6.099 c0.221,0.166,0.266,0.478,0.101,0.699C50.802,72.93,50.651,73,50.499,73z"/><path fill="#1f212b" d="M57.26,70c-0.212,0-0.409-0.136-0.477-0.349c-0.083-0.263,0.063-0.544,0.326-0.627 c1.304-0.413,2.666-0.78,4.051-1.091c0.268-0.059,0.537,0.109,0.598,0.378c0.061,0.27-0.109,0.537-0.379,0.598 c-1.356,0.305-2.691,0.665-3.969,1.069C57.36,69.993,57.31,70,57.26,70z"/><path fill="#1f212b" d="M91,29c0-2.76-2.24-5-5-5h-2.69l1.25,2H86c1.65,0,3,1.35,3,3c0,0,0,21.768,0,22c0,0.552,0.448,1,1,1 s1-0.448,1-1C91,50.728,91,29,91,29z"/><path fill="#1f212b" d="M69,77c0-0.552-0.448-1-1-1H56c-0.42,0-0.8,0.28-0.94,0.67C55.02,76.77,54.17,79,50.5,79 s-4.52-2.23-4.55-2.32C45.81,76.28,45.43,76,45,76H15c-1.65,0-3-1.35-3-3V29c0-1.65,1.35-3,3-3h1.44l1.25-2H15 c-2.761,0-5,2.239-5,5v44c0,2.761,2.239,5,5,5h29.38c0.63,1.07,2.3,3,6.12,3s5.49-1.93,6.12-3H68C68.552,78,69,77.552,69,77L69,77z"/><path fill="#1f212b" d="M55.5,64.599c-0.204,0-0.396-0.125-0.47-0.328c-0.095-0.259,0.039-0.546,0.298-0.642 c0.609-0.223,1.288-0.454,2.02-0.688c0.267-0.088,0.545,0.062,0.629,0.324c0.084,0.263-0.062,0.544-0.324,0.628 c-0.718,0.229-1.383,0.456-1.98,0.675C55.615,64.589,55.557,64.599,55.5,64.599z"/><g><path fill="#fff" d="M90,55.5c-1.381,0-2.5,1.119-2.5,2.5c0-0.677,0-1.824,0-2c0-1.381-1.119-2.5-2.5-2.5 s-2.5,1.119-2.5,2.5c0,0.47,0,0.5,0,0.5s-0.005-1.301-0.005-1.914c0-1.381-1.119-2.5-2.5-2.5c-1.364,0-2.468,1.094-2.495,2.451 c0-4.162,0-7.95,0-8.536c0-1.381-1.119-2.5-2.5-2.5s-2.5,1.119-2.5,2.5c0,0.683,0,13.482,0,18.5c0,0-1.25-0.75-3-1.75 c-1.793-1.025-3.813-2.25-5-2.25c-2.25,0-3,2-3,2l11,12.875V84.5h20c0,0,0-25.119,0-26.5C92.5,56.619,91.381,55.5,90,55.5z"/><rect width="20" height="9.5" x="72.5" y="75" fill="#78a2d2"/><circle cx="88" cy="80" r="1.5" fill="#565fa1"/><path fill="#1f212b" d="M77.5,56c-0.276,0-0.5-0.224-0.5-0.5v-1c0-0.276,0.224-0.5,0.5-0.5s0.5,0.224,0.5,0.5v1 C78,55.776,77.776,56,77.5,56z"/><path fill="#1f212b" d="M87.5,59c-0.276,0-0.5-0.224-0.5-0.5v-1c0-0.276,0.224-0.5,0.5-0.5s0.5,0.224,0.5,0.5v1 C88,58.776,87.776,59,87.5,59z"/><path fill="#1f212b" d="M87.5,67c-0.276,0-0.5-0.224-0.5-0.5v-5c0-0.276,0.224-0.5,0.5-0.5s0.5,0.224,0.5,0.5v5 C88,66.776,87.776,67,87.5,67z"/><path fill="#1f212b" d="M82.5,67c-0.276,0-0.5-0.224-0.5-0.5v-6c0-0.276,0.224-0.5,0.5-0.5s0.5,0.224,0.5,0.5v6 C83,66.776,82.776,67,82.5,67z"/><path fill="#1f212b" d="M82.5,70c-0.276,0-0.5-0.224-0.5-0.5v-1c0-0.276,0.224-0.5,0.5-0.5s0.5,0.224,0.5,0.5v1 C83,69.776,82.776,70,82.5,70z"/><path fill="#1f212b" d="M82.5,73c-0.276,0-0.5-0.224-0.5-0.5v-1c0-0.276,0.224-0.5,0.5-0.5s0.5,0.224,0.5,0.5v1 C83,72.776,82.776,73,82.5,73z"/><path fill="#1f212b" d="M92.5,85h-20c-0.276,0-0.5-0.224-0.5-0.5v-8.94L61.12,62.825c-0.118-0.138-0.152-0.33-0.088-0.5 C61.067,62.229,61.933,60,64.5,60c1.218,0,3.029,1.041,4.78,2.047l0.468,0.269c0.928,0.53,1.715,0.99,2.252,1.306V46 c0-1.654,1.346-3,3-3s3,1.346,3,3v6.356c0.532-0.479,1.233-0.771,1.995-0.771c1.402,0,2.583,0.967,2.91,2.269 C83.446,53.326,84.186,53,85,53c1.578,0,2.875,1.225,2.992,2.773C88.524,55.293,89.228,55,90,55c1.654,0,3,1.346,3,3v26.5 C93,84.776,92.776,85,92.5,85z M73,84h19V58c0-1.103-0.897-2-2-2s-2,0.897-2,2c0,0.276-0.224,0.5-0.5,0.5S87,58.276,87,58v-2 c0-1.103-0.897-2-2-2s-2,0.897-2,2v0.5c0,0.276-0.223,0.5-0.499,0.5c0,0,0,0-0.001,0c-0.275,0-0.499-0.223-0.5-0.498l-0.005-1.917 c0-1.103-0.897-2-2-2c-1.079,0-1.974,0.88-1.995,1.961c-0.005,0.274-0.228,0.511-0.505,0.49C77.221,55.034,77,54.811,77,54.537V46 c0-1.103-0.897-2-2-2s-2,0.897-2,2v18.5c0,0.18-0.097,0.346-0.253,0.435s-0.349,0.086-0.504-0.006 c-0.002-0.001-1.248-0.749-2.991-1.745l-0.471-0.27C67.22,62.017,65.451,61,64.5,61c-1.433,0-2.144,0.952-2.408,1.423L72.88,75.05 c0.077,0.09,0.12,0.206,0.12,0.325V84z"/><path fill="#1f212b" d="M86.5,76h-14c-0.276,0-0.5-0.224-0.5-0.5c0-0.276,0.224-0.5,0.5-0.5l0,0l14,0.003 c0.276,0,0.5,0.224,0.5,0.5C87,75.78,86.5,76,86.5,76z"/><path fill="#1f212b" d="M89.5,76h-1c-0.276,0-0.5-0.224-0.5-0.5s0.224-0.5,0.5-0.5h1c0.276,0,0.5,0.224,0.5,0.5 S89.776,76,89.5,76z"/><path fill="#1f212b" d="M77.5,72c-0.276,0-0.5-0.224-0.5-0.5v-11c0-0.276,0.224-0.5,0.5-0.5s0.5,0.224,0.5,0.5v11 C78,71.776,77.776,72,77.5,72z"/><path fill="#1f212b" d="M88,82c-1.103,0-2-0.897-2-2s0.897-2,2-2s2,0.897,2,2S89.103,82,88,82z M88,79c-0.551,0-1,0.449-1,1 s0.449,1,1,1s1-0.449,1-1S88.551,79,88,79z"/></g></svg>